<svg id="icon_mypage_history_24px" xmlns="http://www.w3.org/2000/svg" width="24" height="24" viewBox="0 0 24 24">
  <g id="그룹_49" data-name="그룹 49">
    <rect id="사각형_85" data-name="사각형 85" width="24" height="24" fill="none"/>
    <rect id="사각형_86" data-name="사각형 86" width="24" height="24" fill="none"/>
  </g>
  <g id="그룹_51" data-name="그룹 51">
    <g id="그룹_50" data-name="그룹 50">
      <path id="패스_95" data-name="패스 95" d="M9,5v.38a7.082,7.082,0,0,0-2.61-.5A6.984,6.984,0,0,0,2.34,6.17,1,1,0,0,0,2.21,7.7l2.57,2.57H5.89v1.11A4.675,4.675,0,0,0,9,12.74V15H7a1,1,0,0,0-1,1v2a2.006,2.006,0,0,0,2,2H18a3,3,0,0,0,3-3V5a1,1,0,0,0-1-1H10A1,1,0,0,0,9,5ZM7.89,10.41V8.26H5.61L4.57,7.22a5.07,5.07,0,0,1,1.82-.34A4.994,4.994,0,0,1,9.93,8.34l1.41,1.41-.2.2a2.7,2.7,0,0,1-1.92.8A2.769,2.769,0,0,1,7.89,10.41ZM19,17a1,1,0,0,1-2,0V16a1,1,0,0,0-1-1H11V12.41a4.659,4.659,0,0,0,1.56-1.03l.2-.2L15.59,14H17V12.59L11,6.62V6h8Z" fill="#191919"/>
    </g>
  </g>
</svg>
