<svg id="icon_appbar_notification_28px" xmlns="http://www.w3.org/2000/svg" width="28" height="28" viewBox="0 0 28 28">
  <path id="패스_58" data-name="패스 58" d="M0,0H28V28H0Z" fill="none"/>
  <path id="패스_59" data-name="패스 59" d="M13.415,24.565A2.327,2.327,0,0,0,15.788,22.3H11.042A2.319,2.319,0,0,0,13.415,24.565Zm7.119-6.789V12.118c0-3.474-1.946-6.382-5.339-7.151V4.2a1.782,1.782,0,0,0-3.56,0v.769C8.23,5.736,6.3,8.633,6.3,12.118v5.658l-1.531,1.46A1.126,1.126,0,0,0,5.6,21.171H21.222a1.129,1.129,0,0,0,.842-1.935Z" transform="translate(1)"/>
</svg>
