<svg id="icon_camera_30px" xmlns="http://www.w3.org/2000/svg" width="29.999" height="29.999" viewBox="0 0 29.999 29.999">
  <path id="패스_200" data-name="패스 200" d="M0,0H30V30H0Z" fill="none"/>
  <circle id="타원_13" data-name="타원 13" cx="4" cy="4" r="4" transform="translate(11 11)" fill="#5cb3e8"/>
  <path id="패스_201" data-name="패스 201" d="M24.5,4.5H20.537l-1.55-1.687A2.488,2.488,0,0,0,17.15,2h-5.3A2.536,2.536,0,0,0,10,2.812L8.462,4.5H4.5A2.507,2.507,0,0,0,2,7V22a2.507,2.507,0,0,0,2.5,2.5h20A2.507,2.507,0,0,0,27,22V7A2.507,2.507,0,0,0,24.5,4.5Zm-10,16.249a6.25,6.25,0,1,1,6.25-6.25A6.252,6.252,0,0,1,14.5,20.749Z" transform="translate(0.5 0.5)" fill="#5cb3e8"/>
</svg>
