<svg id="icon_profile_designer_50px" xmlns="http://www.w3.org/2000/svg" width="50" height="50" viewBox="0 0 50 50">
  <circle id="타원_1" data-name="타원 1" cx="25" cy="25" r="25" fill="#c2d5f1"/>
  <g id="color_lens-24px" transform="translate(11.239 11.239)">
    <path id="패스_79" data-name="패스 79" d="M0,0H28.1V28.1H0Z" fill="none"/>
    <path id="패스_80" data-name="패스 80" d="M15.176,3a12.176,12.176,0,0,0,0,24.351,2.03,2.03,0,0,0,1.5-3.4,2.022,2.022,0,0,1,1.515-3.369h2.395a6.767,6.767,0,0,0,6.764-6.764C27.351,7.843,21.9,3,15.176,3ZM7.735,15.176a2.029,2.029,0,1,1,2.029-2.029A2.027,2.027,0,0,1,7.735,15.176Zm4.059-5.411a2.029,2.029,0,1,1,2.029-2.029A2.027,2.027,0,0,1,11.794,9.764Zm6.764,0a2.029,2.029,0,1,1,2.029-2.029A2.027,2.027,0,0,1,18.558,9.764Zm4.059,5.411a2.029,2.029,0,1,1,2.029-2.029A2.027,2.027,0,0,1,22.616,15.176Z" transform="translate(-1.127 -1.127)" fill="#fcfcfc"/>
  </g>
</svg>
