<svg id="icon_equipment_44px" xmlns="http://www.w3.org/2000/svg" width="44" height="44" viewBox="0 0 44 44">
  <circle id="타원_1" data-name="타원 1" cx="22" cy="22" r="22" fill="#8fb3eb"/>
  <g id="book" transform="translate(-59.214 9.235)">
    <path id="패스_83" data-name="패스 83" d="M72.8,23.011A.8.8,0,0,1,72,22.2V3.331A3.322,3.322,0,0,1,75.3,0H89.627a.8.8,0,0,1,.8.807v18.57a.8.8,0,1,1-1.6,0V1.615H75.3a1.711,1.711,0,0,0-1.7,1.716V22.2A.8.8,0,0,1,72.8,23.011Z" transform="translate(0 0)" fill="#fff"/>
    <path id="패스_84" data-name="패스 84" d="M89.627,374.757H75.605a3.386,3.386,0,1,1,0-6.757H89.627a.752.752,0,1,1,0,1.5H75.605a1.881,1.881,0,1,0,0,3.754H89.627a.752.752,0,1,1,0,1.5Z" transform="translate(0 -349.118)" fill="#fff"/>
    <path id="패스_85" data-name="패스 85" d="M141.889,425.5H128.751a.751.751,0,1,1,0-1.5h13.139a.751.751,0,1,1,0,1.5Z" transform="translate(-52.212 -402.491)" fill="#fff"/>
    <path id="패스_86" data-name="패스 86" d="M144.751,18.769a.751.751,0,0,1-.751-.751V.751a.751.751,0,0,1,1.5,0V18.019A.751.751,0,0,1,144.751,18.769Z" transform="translate(-68.373)" fill="#fff"/>
  </g>
</svg>
