<svg id="icon_attendance_qrcode_40px" xmlns="http://www.w3.org/2000/svg" width="40" height="40" viewBox="0 0 40 40">
  <rect id="사각형_65" data-name="사각형 65" width="40" height="40" fill="none"/>
  <path id="패스_60" data-name="패스 60" d="M15.86,10.316V15.86H10.316V10.316H15.86m2.772-2.772H7.544V18.632H18.632V7.544ZM15.86,25.1v5.544H10.316V25.1H15.86m2.772-2.772H7.544V33.416H18.632V22.328ZM30.644,10.316V15.86H25.1V10.316h5.544m2.772-2.772H22.328V18.632H33.416V7.544ZM22.328,22.328H25.1V25.1H22.328ZM25.1,25.1h2.772v2.772H25.1Zm2.772-2.772h2.772V25.1H27.872Zm-5.544,5.544H25.1v2.772H22.328ZM25.1,30.644h2.772v2.772H25.1Zm2.772-2.772h2.772v2.772H27.872ZM30.644,25.1h2.772v2.772H30.644Zm0,5.544h2.772v2.772H30.644Zm6.468-19.4h0a1.853,1.853,0,0,1-1.848-1.848V5.7h-3.7A1.853,1.853,0,0,1,29.72,3.848h0A1.853,1.853,0,0,1,31.568,2h5.544A1.853,1.853,0,0,1,38.96,3.848V9.392A1.853,1.853,0,0,1,37.112,11.24ZM38.96,37.112V31.568a1.853,1.853,0,0,0-1.848-1.848h0a1.853,1.853,0,0,0-1.848,1.848v3.7h-3.7a1.853,1.853,0,0,0-1.848,1.848h0a1.853,1.853,0,0,0,1.848,1.848h5.544A1.853,1.853,0,0,0,38.96,37.112ZM3.848,38.96H9.392a1.853,1.853,0,0,0,1.848-1.848h0a1.853,1.853,0,0,0-1.848-1.848H5.7v-3.7A1.853,1.853,0,0,0,3.848,29.72h0A1.853,1.853,0,0,0,2,31.568v5.544A1.853,1.853,0,0,0,3.848,38.96ZM2,3.848V9.392A1.853,1.853,0,0,0,3.848,11.24h0A1.853,1.853,0,0,0,5.7,9.392V5.7h3.7A1.853,1.853,0,0,0,11.24,3.848h0A1.853,1.853,0,0,0,9.392,2H3.848A1.853,1.853,0,0,0,2,3.848Z" transform="translate(-0.98 -0.48)" fill="#3677dc"/>
</svg>
