<svg id="icon_sidebar_28px" xmlns="http://www.w3.org/2000/svg" width="28" height="28" viewBox="0 0 28 28">
  <path id="패스_47" data-name="패스 47" d="M0,0H28V28H0Z" fill="none"/>
  <path id="패스_48" data-name="패스 48" d="M4.111,22H21.889a1.356,1.356,0,0,0,0-2.667H4.111a1.356,1.356,0,0,0,0,2.667Zm0-6.667H21.889A1.241,1.241,0,0,0,23,14a1.241,1.241,0,0,0-1.111-1.333H4.111A1.241,1.241,0,0,0,3,14,1.241,1.241,0,0,0,4.111,15.333ZM3,7.333A1.241,1.241,0,0,0,4.111,8.667H21.889A1.241,1.241,0,0,0,23,7.333,1.241,1.241,0,0,0,21.889,6H4.111A1.241,1.241,0,0,0,3,7.333Z" transform="translate(1 0.079)"/>
</svg>
