<svg id="icon_equipment_plug_44px" xmlns="http://www.w3.org/2000/svg" width="44" height="44" viewBox="0 0 44 44">
  <circle id="타원_2" data-name="타원 2" cx="22" cy="22" r="22" fill="#3677dc"/>
  <g id="power-24px" transform="translate(10 10)">
    <path id="패스_122" data-name="패스 122" d="M0,0H24V24H0Z" fill="none"/>
    <path id="패스_123" data-name="패스 123" d="M16.01,7,16,4a1,1,0,0,0-2,0V7H10V4A1,1,0,0,0,8,4V7H7.99A2,2,0,0,0,6,8.99v4.66a2,2,0,0,0,.58,1.41L9.5,18v2a1,1,0,0,0,1,1h3a1,1,0,0,0,1-1V18l2.92-2.92A2.039,2.039,0,0,0,18,13.66V8.99A1.989,1.989,0,0,0,16.01,7Z" fill="#fff"/>
  </g>
</svg>
