<svg id="icon_button_list_18px" xmlns="http://www.w3.org/2000/svg" width="18.004" height="18.004" viewBox="0 0 18.004 18.004">
  <g id="그룹_52" data-name="그룹 52">
    <path id="패스_106" data-name="패스 106" d="M0,0H18V18H0Z" fill="none"/>
    <path id="패스_107" data-name="패스 107" d="M0,0H18V18H0Z" fill="none" opacity="0.87"/>
  </g>
  <path id="패스_108" data-name="패스 108" d="M3.778,11.667A.778.778,0,1,0,3,10.889.78.78,0,0,0,3.778,11.667Zm0,3.111A.778.778,0,1,0,3,14,.78.78,0,0,0,3.778,14.778Zm0-6.222A.778.778,0,1,0,3,7.778.78.78,0,0,0,3.778,8.556Zm3.111,3.111h9.333a.778.778,0,1,0,0-1.556H6.889a.778.778,0,1,0,0,1.556Zm0,3.111h9.333a.778.778,0,1,0,0-1.556H6.889a.778.778,0,1,0,0,1.556Zm-.778-7a.78.78,0,0,0,.778.778h9.333a.778.778,0,1,0,0-1.556H6.889A.78.78,0,0,0,6.111,7.778ZM3.778,11.667A.778.778,0,1,0,3,10.889.78.78,0,0,0,3.778,11.667Zm0,3.111A.778.778,0,1,0,3,14,.78.78,0,0,0,3.778,14.778Zm0-6.222A.778.778,0,1,0,3,7.778.78.78,0,0,0,3.778,8.556Zm3.111,3.111h9.333a.778.778,0,1,0,0-1.556H6.889a.778.778,0,1,0,0,1.556Zm0,3.111h9.333a.778.778,0,1,0,0-1.556H6.889a.778.778,0,1,0,0,1.556Zm-.778-7a.78.78,0,0,0,.778.778h9.333a.778.778,0,1,0,0-1.556H6.889A.78.78,0,0,0,6.111,7.778Z" transform="translate(-0.344 -2.357)" fill="#dbdbdb"/>
</svg>
