<svg id="icon_offline_16px" xmlns="http://www.w3.org/2000/svg" width="16" height="16" viewBox="0 0 16 16">
  <g id="그룹_6" data-name="그룹 6" transform="translate(0 -0.109)">
    <rect id="사각형_67" data-name="사각형 67" width="16" height="16" transform="translate(0 0.109)" fill="none"/>
    <rect id="사각형_68" data-name="사각형 68" width="16" height="16" transform="translate(0 0.109)" fill="none"/>
  </g>
  <g id="그룹_8" data-name="그룹 8" transform="translate(3.354 1.905)">
    <g id="그룹_7" data-name="그룹 7">
      <path id="패스_71" data-name="패스 71" d="M9.7,3a4.508,4.508,0,0,0-.94.094A4.693,4.693,0,0,0,6.57,11.2a1.305,1.305,0,0,1,.443.987v1.55a1.346,1.346,0,0,0,1.342,1.342h.188a1.328,1.328,0,0,0,2.309,0h.188a1.346,1.346,0,0,0,1.342-1.342v-1.55a1.3,1.3,0,0,1,.43-.98A4.693,4.693,0,0,0,9.7,3Zm.336,7.383H9.362V8.645L8.133,7.423l.477-.477L9.7,8.034l1.087-1.087.477.477L10.033,8.652Zm.671,3.356c-.007,0-.013-.007-.02-.007v.007H8.711v-.007c-.007,0-.013.007-.02.007a.336.336,0,0,1,0-.671c.007,0,.013.007.02.007v-.007h1.973v.007c.007,0,.013-.007.02-.007a.336.336,0,1,1,0,.671Zm0-1.342H8.691a.336.336,0,1,1,0-.671H10.7a.336.336,0,0,1,0,.671Z" transform="translate(-4.997 -3)" fill="#eaeaea"/>
    </g>
  </g>
</svg>
