<svg id="icon_home_selected_30px" xmlns="http://www.w3.org/2000/svg" width="30" height="30" viewBox="0 0 30 30">
  <path id="패스_43" data-name="패스 43" d="M0,0H30V30H0Z" fill="none"/>
  <path id="패스_44" data-name="패스 44" d="M12.347,24.64v-6.8h5.3v6.8A1.347,1.347,0,0,0,18.978,26h3.978a1.347,1.347,0,0,0,1.326-1.36V15.118h2.254a.677.677,0,0,0,.438-1.183L15.888,3.692a1.311,1.311,0,0,0-1.777,0L3.025,13.935a.68.68,0,0,0,.438,1.183H5.717V24.64A1.347,1.347,0,0,0,7.043,26h3.978A1.347,1.347,0,0,0,12.347,24.64Z" fill="#3677dc"/>
</svg>
