<svg id="icon_equipment_book_44px" xmlns="http://www.w3.org/2000/svg" width="44" height="44" viewBox="0 0 44 44">
  <circle id="타원_2" data-name="타원 2" cx="22" cy="22" r="22" fill="#3677dc"/>
  <g id="import_contacts-24px" transform="translate(10 10)">
    <path id="패스_118" data-name="패스 118" d="M0,0H24V24H0Z" fill="none"/>
    <path id="패스_119" data-name="패스 119" d="M17.5,4.5A9.3,9.3,0,0,0,12,6,9.3,9.3,0,0,0,6.5,4.5a10.819,10.819,0,0,0-4.28.79A2.037,2.037,0,0,0,1,7.14V18.42a2,2,0,0,0,2.48,1.94A12.35,12.35,0,0,1,6.5,20a10.574,10.574,0,0,1,4.56.92,2.055,2.055,0,0,0,1.87,0A10.43,10.43,0,0,1,17.49,20a12.35,12.35,0,0,1,3.02.36,1.986,1.986,0,0,0,2.48-1.94V7.14a2.037,2.037,0,0,0-1.22-1.85A10.738,10.738,0,0,0,17.5,4.5ZM21,17.23a1.01,1.01,0,0,1-1.2.98,12.609,12.609,0,0,0-2.3-.2,12.045,12.045,0,0,0-5.5,1.5V8a12.045,12.045,0,0,1,5.5-1.5,12.687,12.687,0,0,1,2.7.28,1.014,1.014,0,0,1,.8.98Z" fill="#fff"/>
  </g>
</svg>
