<svg xmlns="http://www.w3.org/2000/svg" xmlns:xlink="http://www.w3.org/1999/xlink" width="44" height="44" viewBox="0 0 44 44">
  <defs>
    <clipPath id="clip-path">
      <rect width="44" height="44" fill="none"/>
    </clipPath>
  </defs>
  <g id="icon_notice" clip-path="url(#clip-path)">
    <g id="icon_notice-2" data-name="icon_notice" transform="translate(-30 -174)">
      <circle id="타원_2" data-name="타원 2" cx="22" cy="22" r="22" transform="translate(30 174)" fill="#ff8181"/>
      <g id="event-24px" transform="translate(39 183)">
        <path id="패스_178" data-name="패스 178" d="M0,0H26V26H0Z" fill="none"/>
        <path id="패스_179" data-name="패스 179" d="M17.444,14.1H14.111A1.109,1.109,0,0,0,13,15.2v3.3a1.109,1.109,0,0,0,1.111,1.1h3.333a1.109,1.109,0,0,0,1.111-1.1V15.2A1.109,1.109,0,0,0,17.444,14.1Zm0-11V4.2H8.556V3.1a1.111,1.111,0,0,0-2.222,0V4.2H5.222A2.2,2.2,0,0,0,3.011,6.4L3,21.8A2.211,2.211,0,0,0,5.222,24H20.778A2.218,2.218,0,0,0,23,21.8V6.4a2.218,2.218,0,0,0-2.222-2.2H19.667V3.1a1.111,1.111,0,0,0-2.222,0Zm2.222,18.7H6.333a1.109,1.109,0,0,1-1.111-1.1V9.7H20.778v11A1.109,1.109,0,0,1,19.667,21.8Z" transform="translate(0)" fill="#fff"/>
      </g>
    </g>
  </g>
</svg>
