<svg id="icon_mypage_list_24px" xmlns="http://www.w3.org/2000/svg" width="24" height="24" viewBox="0 0 24 24">
  <rect id="사각형_87" data-name="사각형 87" width="24" height="24" fill="none"/>
  <path id="패스_96" data-name="패스 96" d="M19,3H4.99A2,2,0,0,0,3,5l.01,14A2,2,0,0,0,5,21H15l6-6V5A2.006,2.006,0,0,0,19,3ZM8,8h8a1,1,0,0,1,1,1h0a1,1,0,0,1-1,1H8A1,1,0,0,1,7,9H7A1,1,0,0,1,8,8Zm3,6H8a1,1,0,0,1-1-1H7a1,1,0,0,1,1-1h3a1,1,0,0,1,1,1h0A1,1,0,0,1,11,14Zm3,5.5V15a1,1,0,0,1,1-1h4.5Z" fill="#191919"/>
</svg>
