<svg id="icon_github_44px" xmlns="http://www.w3.org/2000/svg" width="44" height="44" viewBox="0 0 44 44">
  <circle id="타원_4" data-name="타원 4" cx="22" cy="22" r="22" fill="#f7f7fa"/>
  <g id="github" transform="translate(8 2.671)">
    <g id="그룹_25" data-name="그룹 25" transform="translate(0 5.329)">
      <path id="패스_95" data-name="패스 95" d="M13.785,5.329A13.85,13.85,0,0,0,9.43,32.305c.689.128.941-.3.941-.667,0-.329-.012-1.2-.019-2.354-3.835.836-4.645-1.856-4.645-1.856A3.655,3.655,0,0,0,4.177,25.4c-1.253-.858.093-.841.093-.841a2.9,2.9,0,0,1,2.111,1.427A2.93,2.93,0,0,0,10.4,27.138a2.955,2.955,0,0,1,.875-1.851c-3.061-.35-6.28-1.537-6.28-6.84a5.365,5.365,0,0,1,1.42-3.716,4.988,4.988,0,0,1,.134-3.662S7.7,10.7,10.337,12.488a13.014,13.014,0,0,1,6.9,0c2.632-1.791,3.788-1.418,3.788-1.418a5,5,0,0,1,.138,3.662,5.355,5.355,0,0,1,1.417,3.716c0,5.317-3.223,6.487-6.294,6.83a3.311,3.311,0,0,1,.936,2.563c0,1.851-.017,3.343-.017,3.8,0,.371.248.8.948.665a13.852,13.852,0,0,0-4.37-26.974Z" transform="translate(0 -5.329)"/>
    </g>
  </g>
</svg>
