<svg id="icon_equipment_hammer_44px" xmlns="http://www.w3.org/2000/svg" width="44" height="44" viewBox="0 0 44 44">
  <circle id="타원_2" data-name="타원 2" cx="22" cy="22" r="22" fill="#3677dc"/>
  <g id="handyman-24px" transform="translate(10 10)">
    <g id="그룹_59" data-name="그룹 59">
      <rect id="사각형_85" data-name="사각형 85" width="24" height="24" fill="none"/>
      <rect id="사각형_86" data-name="사각형 86" width="24" height="24" fill="none"/>
    </g>
    <g id="그룹_63" data-name="그룹 63">
      <g id="그룹_62" data-name="그룹 62">
        <g id="그룹_60" data-name="그룹 60">
          <path id="패스_124" data-name="패스 124" d="M21.67,18.17l-4.72-4.72a2.032,2.032,0,0,0-1.58-.59L12.83,15.4a2.02,2.02,0,0,0,.59,1.58l4.72,4.72a1,1,0,0,0,1.41,0l2.12-2.12A1,1,0,0,0,21.67,18.17Z" fill="#fff"/>
        </g>
        <g id="그룹_61" data-name="그룹 61">
          <path id="패스_125" data-name="패스 125" d="M16.63,9.49a1,1,0,0,0,1.41,0l.71-.71,2.12,2.12a3,3,0,0,0,0-4.24L18.04,3.83a1,1,0,0,0-1.41,0l-.71.71V2a.71.71,0,0,0-1.21-.5L12.17,4.04a.71.71,0,0,0,.5,1.21h2.54l-.71.71a1,1,0,0,0,0,1.41l.35.35-2.89,2.89L7.85,6.48v-1a1.033,1.033,0,0,0-.29-.71L5.54,2.74a1,1,0,0,0-1.41,0L2.71,4.16a1,1,0,0,0,0,1.41L4.73,7.6a.99.99,0,0,0,.71.29h1l4.13,4.13-.85.85H8.42a1.966,1.966,0,0,0-1.41.59L2.29,18.18a1,1,0,0,0,0,1.41l2.12,2.12a1,1,0,0,0,1.41,0l4.72-4.72a1.983,1.983,0,0,0,.59-1.41V14.29l5.15-5.15Z" fill="#fff"/>
        </g>
      </g>
    </g>
  </g>
</svg>
