<svg id="icon_equipment_pen_44px" xmlns="http://www.w3.org/2000/svg" width="44" height="44" viewBox="0 0 44 44">
  <circle id="타원_2" data-name="타원 2" cx="22" cy="22" r="22" fill="#3677dc"/>
  <g id="create-24px" transform="translate(10 10)">
    <path id="패스_126" data-name="패스 126" d="M0,0H24V24H0Z" fill="none"/>
    <path id="패스_127" data-name="패스 127" d="M3,17.46V20.5a.5.5,0,0,0,.5.5H6.54a.469.469,0,0,0,.35-.15L17.81,9.94,14.06,6.19,3.15,17.1a.491.491,0,0,0-.15.36ZM20.71,7.04a1,1,0,0,0,0-1.41L18.37,3.29a1,1,0,0,0-1.41,0L15.13,5.12l3.75,3.75,1.83-1.83Z" fill="#fff"/>
  </g>
</svg>
