<svg id="icon_notice_44px" xmlns="http://www.w3.org/2000/svg" width="44" height="44" viewBox="0 0 44 44">
  <circle id="타원_2" data-name="타원 2" cx="22" cy="22" r="22" fill="#ffb74b"/>
  <g id="megaphone" transform="translate(-21.849 8)">
    <g id="그룹_14" data-name="그룹 14" transform="translate(30.849 1.044)">
      <g id="그룹_13" data-name="그룹 13" transform="translate(0)">
        <path id="패스_87" data-name="패스 87" d="M53.606,29.1l-9.278-9.278a2.46,2.46,0,0,0-3.779,3.116L40.536,23a17.167,17.167,0,0,1-4.71,8.8l-4.256,4.256a2.459,2.459,0,0,0,0,3.479l2.32,2.32a2.459,2.459,0,0,0,3.479,0l.58-.58,4.059,4.059a2.46,2.46,0,1,0,3.479-3.479l-1.74-1.74.58-.58a2.459,2.459,0,0,0,0-3.479l-.394-.394a17.169,17.169,0,0,1,6.491-2.772l.065-.013a2.463,2.463,0,0,0,3.115-.3h0A2.463,2.463,0,0,0,53.606,29.1Zm-17.4,11.6a.82.82,0,0,1-1.16,0l-2.32-2.32a.82.82,0,0,1,0-1.16l4.059-4.059,3.479,3.479Zm8.118,2.32a.82.82,0,0,1-1.16,1.16l-4.059-4.059,1.16-1.16Zm-2.9-5.219c.247-.247.616-.624,1.2-1.122l.542.542a.82.82,0,0,1,0,1.16l-.58.58Zm.035-2.285L37.914,31.96a18.78,18.78,0,0,0,3.993-7.605l7.161,7.161A18.779,18.779,0,0,0,41.463,35.509Zm10.983-4.094a.82.82,0,0,1-1.16,0l-9.278-9.278a.82.82,0,0,1,1.16-1.16l9.278,9.278A.821.821,0,0,1,52.446,31.415Z" transform="translate(-30.849 -19.098)" fill="#fff"/>
      </g>
    </g>
    <g id="그룹_16" data-name="그룹 16" transform="translate(34.81 17.76)">
      <g id="그룹_15" data-name="그룹 15">
        <path id="패스_88" data-name="패스 88" d="M105.826,325a.82.82,0,0,0-1.16,0l-1.16,1.16a.82.82,0,1,0,1.16,1.16l1.16-1.16A.82.82,0,0,0,105.826,325Z" transform="translate(-103.266 -324.762)" fill="#fff"/>
      </g>
    </g>
    <g id="그룹_18" data-name="그룹 18" transform="translate(47.274)">
      <g id="그룹_17" data-name="그룹 17">
        <path id="패스_89" data-name="패스 89" d="M332.014,0a.82.82,0,0,0-.82.82V2.46a.82.82,0,0,0,1.64,0V.82A.82.82,0,0,0,332.014,0Z" transform="translate(-331.194)" fill="#fff"/>
      </g>
    </g>
    <g id="그룹_20" data-name="그룹 20" transform="translate(52.195 6.561)">
      <g id="그룹_19" data-name="그룹 19">
        <path id="패스_90" data-name="패스 90" d="M423.629,119.966h-1.64a.82.82,0,1,0,0,1.64h1.64a.82.82,0,1,0,0-1.64Z" transform="translate(-421.169 -119.966)" fill="#fff"/>
      </g>
    </g>
    <g id="그룹_22" data-name="그룹 22" transform="translate(50.555 1.64)">
      <g id="그룹_21" data-name="그룹 21">
        <path id="패스_91" data-name="패스 91" d="M394.218,30.231a.82.82,0,0,0-1.16,0l-1.64,1.64a.82.82,0,0,0,1.16,1.16l1.64-1.64A.82.82,0,0,0,394.218,30.231Z" transform="translate(-391.178 -29.991)" fill="#fff"/>
      </g>
    </g>
  </g>
</svg>
