<svg id="icon_notice_16px" xmlns="http://www.w3.org/2000/svg" width="16" height="16" viewBox="0 0 16 16">
  <g id="그룹_54" data-name="그룹 54" transform="translate(0 0)">
    <rect id="사각형_82" data-name="사각형 82" width="16" height="16" transform="translate(0 0)" fill="none"/>
  </g>
  <path id="패스_109" data-name="패스 109" d="M18,11.667h0a.669.669,0,0,0,.667.667H20a.669.669,0,0,0,.667-.667h0A.669.669,0,0,0,20,11H18.667A.669.669,0,0,0,18,11.667Z" transform="translate(-6 -3.667)" fill="#fff"/>
  <path id="패스_110" data-name="패스 110" d="M16.524,16.678a.644.644,0,0,0,.133.913c.353.26.727.54,1.08.807a.652.652,0,0,0,.92-.133c0-.007.007-.007.007-.013a.652.652,0,0,0-.133-.92c-.353-.267-.727-.547-1.073-.807a.662.662,0,0,0-.927.14A.023.023,0,0,1,16.524,16.678Z" transform="translate(-5.464 -5.465)" fill="#fff"/>
  <path id="패스_111" data-name="패스 111" d="M18.676,4.67c0-.007-.007-.007-.007-.013a.654.654,0,0,0-.92-.133c-.353.267-.733.547-1.08.813a.652.652,0,0,0-.127.92c0,.007.007.007.007.013a.653.653,0,0,0,.92.133c.353-.26.727-.547,1.08-.813A.663.663,0,0,0,18.676,4.67Z" transform="translate(-5.469 -1.464)" fill="#fff"/>
  <path id="패스_112" data-name="패스 112" d="M6,8H3.333A1.337,1.337,0,0,0,2,9.333v1.333A1.337,1.337,0,0,0,3.333,12H4v2a.669.669,0,0,0,.667.667h0A.669.669,0,0,0,5.333,14V12H6l3.333,2V6Z" transform="translate(-0.667 -2)" fill="#fff"/>
  <path id="패스_113" data-name="패스 113" d="M15,10.883A2.987,2.987,0,0,0,14,8.65v4.46A2.962,2.962,0,0,0,15,10.883Z" transform="translate(-4.667 -2.883)" fill="#fff"/>
</svg>
