<svg id="icon_profile_designer_80px" xmlns="http://www.w3.org/2000/svg" width="80" height="80" viewBox="0 0 80 80">
  <g id="그룹_416" data-name="그룹 416" transform="translate(-32 -144)">
    <circle id="타원_1" data-name="타원 1" cx="40" cy="40" r="40" transform="translate(32 144)" fill="#c2d5f1"/>
    <g id="color_lens-24px" transform="translate(50 162)">
      <path id="패스_79" data-name="패스 79" d="M0,0H45V45H0Z" fill="none"/>
      <path id="패스_80" data-name="패스 80" d="M22.5,3a19.5,19.5,0,0,0,0,39,3.252,3.252,0,0,0,2.405-5.438,3.238,3.238,0,0,1,2.427-5.395h3.835A10.837,10.837,0,0,0,42,20.333C42,10.757,33.268,3,22.5,3ZM10.583,22.5a3.25,3.25,0,1,1,3.25-3.25A3.246,3.246,0,0,1,10.583,22.5Zm6.5-8.667a3.25,3.25,0,1,1,3.25-3.25A3.246,3.246,0,0,1,17.083,13.833Zm10.833,0a3.25,3.25,0,1,1,3.25-3.25A3.246,3.246,0,0,1,27.917,13.833Zm6.5,8.667a3.25,3.25,0,1,1,3.25-3.25A3.246,3.246,0,0,1,34.417,22.5Z" fill="#fcfcfc"/>
    </g>
  </g>
</svg>
