<svg id="icon_calender_loop" xmlns="http://www.w3.org/2000/svg" width="8" height="10.292" viewBox="0 0 8 10.292">
  <path id="loop-24px" d="M8,2.854v-.9a.247.247,0,0,0-.425-.175l-1.4,1.395a.248.248,0,0,0,0,.355l1.4,1.395A.253.253,0,0,0,8,4.749V3.854a3,3,0,0,1,3,3,2.911,2.911,0,0,1-.22,1.125.48.48,0,0,0,.115.52.5.5,0,0,0,.82-.17A3.914,3.914,0,0,0,12,6.854a4,4,0,0,0-4-4Zm0,7a3,3,0,0,1-3-3,2.911,2.911,0,0,1,.22-1.125.48.48,0,0,0-.115-.52.5.5,0,0,0-.82.17A3.914,3.914,0,0,0,4,6.854a4,4,0,0,0,4,4v.9a.247.247,0,0,0,.425.175l1.4-1.4a.248.248,0,0,0,0-.355l-1.4-1.395A.25.25,0,0,0,8,8.959Z" transform="translate(-4 -1.708)" fill="#999"/>
</svg>
