<svg id="icon_shortcut_selected_30px" xmlns="http://www.w3.org/2000/svg" width="30" height="30" viewBox="0 0 30 30">
  <path id="패스_45" data-name="패스 45" d="M0,0H30V30H0Z" fill="none"/>
  <path id="패스_46" data-name="패스 46" d="M16.174,17.777v7.906A1.321,1.321,0,0,0,17.492,27h7.9a1.321,1.321,0,0,0,1.317-1.318V17.777A1.321,1.321,0,0,0,25.4,16.459h-7.9A1.321,1.321,0,0,0,16.174,17.777ZM4.317,27h7.9a1.321,1.321,0,0,0,1.317-1.318V17.777a1.321,1.321,0,0,0-1.317-1.318h-7.9A1.321,1.321,0,0,0,3,17.777v7.906A1.321,1.321,0,0,0,4.317,27ZM3,4.6v7.906a1.321,1.321,0,0,0,1.317,1.318h7.9a1.321,1.321,0,0,0,1.317-1.318V4.6a1.321,1.321,0,0,0-1.317-1.318h-7.9A1.321,1.321,0,0,0,3,4.6ZM20.061,2.493l-5.6,5.587a1.312,1.312,0,0,0,0,1.858l5.6,5.6a1.312,1.312,0,0,0,1.858,0l5.6-5.6a1.312,1.312,0,0,0,0-1.858L21.931,2.493A1.328,1.328,0,0,0,20.061,2.493Z" fill="#3677dc"/>
</svg>
